<mxfile host="app.diagrams.net" modified="2024-06-12T23:00:58.889Z" agent="Mozilla/5.0 (X11; Linux x86_64) AppleWebKit/537.36 (KHTML, like Gecko) Chrome/125.0.0.0 Safari/537.36" version="24.4.13" etag="mFTAH7sPOBzv2MEKG4qV" type="github">
  <diagram name="Page-1" id="X93tGUUCjkb0KVkqAIQg">
    <mxGraphModel>
      <root>
        <mxCell id="0" />
        <mxCell id="1" parent="0" />
      </root>
    </mxGraphModel>
  </diagram>
</mxfile>
